<svg version="1.1" id="Layer_1" xmlns="http://www.w3.org/2000/svg" xmlns:xlink="http://www.w3.org/1999/xlink" x="0px" y="0px"
	 width="100%" viewBox="0 0 355 286" enable-background="new 0 0 355 286" xml:space="preserve">
<path fill="#C7E9FB" opacity="1.000000" stroke="none" 
	d="
M223.000000,287.000000 
	C148.666687,287.000000 74.833389,287.000000 1.000059,287.000000 
	C1.000040,191.666733 1.000040,96.333458 1.000020,1.000136 
	C119.333229,1.000091 237.666458,1.000091 355.999756,1.000045 
	C355.999847,96.333199 355.999847,191.666397 355.999939,286.999817 
	C311.833344,287.000000 267.666656,287.000000 223.000000,287.000000 
M208.830124,70.825729 
	C208.653839,70.653847 208.477570,70.481956 208.816559,69.872841 
	C234.325897,53.664459 259.835236,37.456081 285.693207,21.026197 
	C284.090454,18.554012 282.795319,16.556292 281.394653,14.395802 
	C279.359680,15.593974 277.769653,16.473257 276.235901,17.441713 
	C251.318787,33.175144 226.331650,48.799824 201.543106,64.733429 
	C193.868515,69.666519 186.458664,74.468979 176.715698,72.331520 
	C175.465179,72.057167 174.024658,72.706329 172.746094,72.490204 
	C170.238892,72.066391 167.423004,71.917137 165.362000,70.641243 
	C140.165253,55.042896 115.083923,39.258163 89.968719,23.528067 
	C85.354073,20.637833 80.721725,17.775860 75.847038,14.745088 
	C74.313461,17.185314 73.018852,19.245285 71.524849,21.622541 
	C97.950142,38.505348 124.440338,54.580791 150.466751,71.360855 
	C150.181931,71.800522 149.897110,72.240189 149.612289,72.679863 
	C116.553574,55.411839 83.494858,38.143814 50.174057,20.738897 
	C48.800652,23.619530 47.757927,25.806580 46.617149,28.199282 
	C83.888435,47.717873 120.714752,67.003441 157.557236,86.297470 
	C165.816315,78.454185 191.791183,78.787827 199.762985,86.089897 
	C236.638763,66.553711 273.469513,47.041367 310.620789,27.359226 
	C309.097839,24.639883 307.934631,22.562908 306.688385,20.337637 
	C299.066589,24.329165 291.994873,28.029583 284.925873,31.735201 
	C259.729736,44.943222 234.534485,58.153019 208.830124,70.825729 
M150.840240,136.500015 
	C150.799637,121.836990 150.639832,107.172592 150.808578,92.511978 
	C150.847137,89.162216 149.748474,87.526062 146.806259,86.060257 
	C119.406982,72.410110 92.085632,58.603477 64.744713,44.836220 
	C56.316521,40.592289 47.897575,36.330009 38.838631,31.755056 
	C38.838631,38.072868 38.834034,43.666687 38.839340,49.260502 
	C38.892426,105.249573 38.947655,161.238647 38.999752,217.227722 
	C39.002197,219.852463 38.734283,222.125198 41.988865,223.748917 
	C77.118202,241.275085 112.141975,259.012848 147.207062,276.668030 
	C148.290695,277.213654 149.508987,277.491791 150.840195,277.955872 
	C150.840195,230.803299 150.840195,184.151657 150.840240,136.500015 
M319.073853,208.430008 
	C319.073853,149.611984 319.073853,90.793976 319.073853,31.277193 
	C316.515259,32.472366 314.862854,33.185642 313.262207,34.000549 
	C279.472229,51.203175 245.718735,68.478180 211.856552,85.537430 
	C208.365570,87.296135 207.172348,89.205048 207.184799,93.110420 
	C207.376053,153.076096 207.388412,213.042343 207.455536,273.008453 
	C207.457306,274.594025 207.606903,276.179443 207.713959,278.283844 
	C209.907272,277.153290 211.521927,276.361572 213.099472,275.501862 
	C245.963882,257.591309 278.743134,239.521271 311.764038,221.904144 
	C317.334717,218.932114 320.425568,215.802475 319.073853,208.430008 
M180.335526,283.801208 
	C184.969040,283.313690 189.593430,282.694275 194.238449,282.373077 
	C199.636139,281.999847 201.304962,279.439240 201.282349,273.968292 
	C201.035858,214.313477 201.053436,154.657593 200.999374,95.001991 
	C200.997940,93.412025 200.999191,91.822052 200.999191,90.092964 
	C185.869339,94.234589 168.810562,94.087791 157.116776,89.786469 
	C157.052597,90.974174 156.938675,92.092224 156.939468,93.210190 
	C156.977341,146.367172 157.020950,199.524139 157.076477,252.681107 
	C157.084488,260.345764 157.321289,268.014587 157.125992,275.673187 
	C157.030045,279.436066 158.632553,281.346344 162.097717,281.808167 
	C167.858505,282.575928 173.642761,283.167664 180.335526,283.801208 
z"/>
<path fill="#0A4B9E" opacity="1.000000" stroke="none" 
	d="
M150.840210,137.000031 
	C150.840195,184.151657 150.840195,230.803299 150.840195,277.955872 
	C149.508987,277.491791 148.290695,277.213654 147.207062,276.668030 
	C112.141975,259.012848 77.118202,241.275085 41.988865,223.748917 
	C38.734283,222.125198 39.002197,219.852463 38.999752,217.227722 
	C38.947655,161.238647 38.892426,105.249573 38.839340,49.260502 
	C38.834034,43.666687 38.838631,38.072868 38.838631,31.755056 
	C47.897575,36.330009 56.316521,40.592289 64.744713,44.836220 
	C92.085632,58.603477 119.406982,72.410110 146.806259,86.060257 
	C149.748474,87.526062 150.847137,89.162216 150.808578,92.511978 
	C150.639832,107.172592 150.799637,121.836990 150.840210,137.000031 
z"/>
<path fill="#0A4C9F" opacity="1.000000" stroke="none" 
	d="
M319.073853,208.916595 
	C320.425568,215.802475 317.334717,218.932114 311.764038,221.904144 
	C278.743134,239.521271 245.963882,257.591309 213.099472,275.501862 
	C211.521927,276.361572 209.907272,277.153290 207.713959,278.283844 
	C207.606903,276.179443 207.457306,274.594025 207.455536,273.008453 
	C207.388412,213.042343 207.376053,153.076096 207.184799,93.110420 
	C207.172348,89.205048 208.365570,87.296135 211.856552,85.537430 
	C245.718735,68.478180 279.472229,51.203175 313.262207,34.000549 
	C314.862854,33.185642 316.515259,32.472366 319.073853,31.277193 
	C319.073853,90.793976 319.073853,149.611984 319.073853,208.916595 
z"/>
<path fill="#0A4C9E" opacity="1.000000" stroke="none" 
	d="
M179.876328,283.817383 
	C173.642761,283.167664 167.858505,282.575928 162.097717,281.808167 
	C158.632553,281.346344 157.030045,279.436066 157.125992,275.673187 
	C157.321289,268.014587 157.084488,260.345764 157.076477,252.681107 
	C157.020950,199.524139 156.977341,146.367172 156.939468,93.210190 
	C156.938675,92.092224 157.052597,90.974174 157.116776,89.786469 
	C168.810562,94.087791 185.869339,94.234589 200.999191,90.092964 
	C200.999191,91.822052 200.997940,93.412025 200.999374,95.001991 
	C201.053436,154.657593 201.035858,214.313477 201.282349,273.968292 
	C201.304962,279.439240 199.636139,281.999847 194.238449,282.373077 
	C189.593430,282.694275 184.969040,283.313690 179.876328,283.817383 
z"/>
<path fill="#0F50A1" opacity="1.000000" stroke="none" 
	d="
M209.338913,71.362152 
	C234.534485,58.153019 259.729736,44.943222 284.925873,31.735201 
	C291.994873,28.029583 299.066589,24.329165 306.688385,20.337637 
	C307.934631,22.562908 309.097839,24.639883 310.620789,27.359226 
	C273.469513,47.041367 236.638763,66.553711 199.762985,86.089897 
	C191.791183,78.787827 165.816315,78.454185 157.557236,86.297470 
	C120.714752,67.003441 83.888435,47.717873 46.617149,28.199282 
	C47.757927,25.806580 48.800652,23.619530 50.174057,20.738897 
	C83.494858,38.143814 116.553574,55.411839 149.612289,72.679863 
	C149.897110,72.240189 150.181931,71.800522 150.466751,71.360855 
	C124.440338,54.580791 97.950142,38.505348 71.524849,21.622541 
	C73.018852,19.245285 74.313461,17.185314 75.847038,14.745088 
	C80.721725,17.775860 85.354073,20.637833 89.968719,23.528067 
	C115.083923,39.258163 140.165253,55.042896 165.362000,70.641243 
	C167.423004,71.917137 170.238892,72.066391 172.746094,72.490204 
	C174.024658,72.706329 175.465179,72.057167 176.715698,72.331520 
	C186.458664,74.468979 193.868515,69.666519 201.543106,64.733429 
	C226.331650,48.799824 251.318787,33.175144 276.235901,17.441713 
	C277.769653,16.473257 279.359680,15.593974 281.394653,14.395802 
	C282.795319,16.556292 284.090454,18.554012 285.693207,21.026197 
	C259.835236,37.456081 234.325897,53.664459 208.315048,70.191956 
	C207.380783,70.812759 206.948044,71.114456 206.224670,71.556465 
	C205.383774,71.940781 204.833496,72.184784 204.283203,72.428787 
	C204.329971,72.613724 204.376740,72.798660 204.423523,72.983604 
	C205.408401,72.806793 206.393280,72.629982 207.648758,72.362122 
	C208.392548,71.968102 208.865723,71.665123 209.338913,71.362152 
z"/>
<path fill="#C7E9FB" opacity="1.000000" stroke="none" 
	d="
M207.378159,72.453171 
	C206.393280,72.629982 205.408401,72.806793 204.423523,72.983604 
	C204.376740,72.798660 204.329971,72.613724 204.283203,72.428787 
	C204.833496,72.184784 205.383774,71.940781 206.437271,71.818314 
	C207.086365,72.110962 207.232269,72.282074 207.378159,72.453171 
z"/>
<path fill="#C7E9FB" opacity="1.000000" stroke="none" 
	d="
M206.727875,71.678001 
	C206.948044,71.114456 207.380783,70.812759 208.057419,70.410568 
	C208.477570,70.481956 208.653839,70.653847 209.084518,71.093941 
	C208.865723,71.665123 208.392548,71.968102 207.648758,72.362122 
	C207.232269,72.282074 207.086365,72.110962 206.727875,71.678001 
z"/>
</svg>